PathFileType	4	(X/Y/Z)	F:\MotionCapture\20160217\3\Generated_files\EMG_test02-Dynamic.trc
DataRate	CameraRate	NumFrames	NumMarkers	Units	OrigDataRate	OrigDataStartFrame	OrigNumFrames
120.00	120.00	       4	39	mm	120.00	595	       679
Frame#	Time	Top.Head			Front.Head			Rear.Head			R.Shoulder			R.Offset			R.Elbow			R.Wrist			L.Shoulder			L.Elbow			L.Wrist			R.ASIS			L.ASIS			V.Sacral			R.Thigh			R.Knee			R.Shank			R.Ankle			R.Heel			R.Toe			L.Thigh			L.Knee			L.Shank			L.Ankle			L.Heel			L.Toe			R1			R2			R3			R4			R5			R6			R7			L1			L2			L3			L4			L5			L6			L7			V_Mid_ASIS			V_Pelvis_Origin			V_R.Hip_JC			V_L.Hip_JC			V_R.Knee_JC			V_L.Knee_JC			V_R.Ankle_JC			V_L.Ankle_JC			V_Mid_Hip			V_Mid_Shoulder			V_R.Hand			V_L.Hand			V_R.Toe_Offset_Static			V_L.Toe_Offset_Static			V_R.Toe_Offset			V_L.Toe_Offset			
		X1	Y1	Z1	X2	Y2	Z2	X3	Y3	Z3	X4	Y4	Z4	X5	Y5	Z5	X6	Y6	Z6	X7	Y7	Z7	X8	Y8	Z8	X9	Y9	Z9	X10	Y10	Z10	X11	Y11	Z11	X12	Y12	Z12	X13	Y13	Z13	X14	Y14	Z14	X15	Y15	Z15	X16	Y16	Z16	X17	Y17	Z17	X18	Y18	Z18	X19	Y19	Z19	X20	Y20	Z20	X21	Y21	Z21	X22	Y22	Z22	X23	Y23	Z23	X24	Y24	Z24	X25	Y25	Z25	X26	Y26	Z26	X27	Y27	Z27	X28	Y28	Z28	X29	Y29	Z29	X30	Y30	Z30	X31	Y31	Z31	X32	Y32	Z32	X33	Y33	Z33	X34	Y34	Z34	X35	Y35	Z35	X36	Y36	Z36	X37	Y37	Z37	X38	Y38	Z38	X39	Y39	Z39	

595	4.950	-2612.24536	307.32227	1689.34070	-2717.00293	309.29114	1597.23499	-2498.02026	292.10214	1629.16711	-2511.61450	482.49435	1375.49585	-2424.91968	190.12425	1236.99829	-2416.02856	561.16107	1063.84204	-2459.31201	590.02600	805.84601	-2591.19897	83.09194	1395.64392	-2684.13525	-43.08877	1098.81921	-2918.61426	1.40329	999.32306	-2645.54541	414.79294	925.00128	-2646.65723	126.51675	901.13361	-2420.16968	271.47650	899.13605	-2783.42627	371.86514	594.33813	-2757.35083	410.09494	470.21027	-2770.68848	332.83102	235.32623	-2728.90576	400.24176	67.81224	-2662.49170	339.15970	40.17362	-2874.26685	388.70758	38.08444	-2657.49414	136.15024	568.84656	-2520.89551	85.36553	425.34857	-2434.85303	154.27351	305.21570	-2178.42920	105.26993	196.51038	-2146.44092	166.55664	245.48416	-2202.97778	121.55541	55.97230	-2920.43848	369.32407	35.35169	-2881.22876	350.08936	43.09219	-2783.01318	313.36792	49.74992	-2708.74829	309.98898	36.44766	-2691.23853	383.69901	42.12428	-2766.28516	412.24448	34.82172	-2832.14966	431.31531	35.09872	-2227.46899	148.93625	32.50396	-2215.85400	159.09055	52.69684	-2204.33057	190.06058	138.75917	-2168.82666	195.29776	210.82925	-2145.46338	125.89762	218.00026	-2157.21484	96.57962	141.06886	-2177.63501	91.01008	81.73000	
596	4.958	-2623.00195	309.12079	1691.45679	-2727.67627	310.67511	1599.46606	-2508.96533	293.66843	1631.61707	-2523.18872	484.69702	1377.82056	-2435.43970	191.53702	1239.07861	-2430.23682	563.47430	1065.40759	-2477.52759	591.28259	807.24939	-2601.94971	84.46395	1397.88562	-2691.76343	-41.74911	1099.77905	-2923.92920	3.03568	994.72266	-2656.35474	416.62497	926.88293	-2657.76733	128.39204	903.25244	-2430.87671	273.35989	900.77002	-2790.58984	372.87289	593.86523	-2762.91187	411.66461	470.57315	-2772.92285	333.59003	234.95724	-2728.72241	400.05447	67.78042	-2662.54321	339.58121	40.08786	-2874.22656	389.10242	37.78865	-2675.27173	138.39069	571.61761	-2543.05762	87.01926	424.88693	-2455.41504	155.86060	307.26328	-2195.81812	107.20276	202.83479	-2168.92700	169.66695	254.31322	-2212.83911	121.53955	61.30061	-2920.21631	370.57874	34.97678	-2881.13477	350.50974	43.01986	-2782.96753	313.42700	49.61942	-2708.69849	309.99579	36.44157	-2691.21948	383.71732	42.23188	-2766.30127	412.13669	34.97377	-2831.96216	431.58063	34.84101	-2235.19141	146.61378	31.98385	-2225.98291	158.09807	56.28160	-2220.39868	191.09256	143.75148	-2190.05908	198.46730	219.38747	-2166.33374	128.91612	228.30466	-2172.51245	98.50447	150.72382	-2189.26050	91.56844	90.18690	
597	4.967	-2633.90918	310.67062	1693.90076	-2738.23853	311.34512	1601.94824	-2519.34375	295.21472	1633.70813	-2534.55005	486.15057	1380.37512	-2446.18970	193.67505	1241.16650	-2444.57520	565.55762	1066.68542	-2496.32617	592.87585	809.75256	-2612.43579	85.85480	1400.20618	-2698.62012	-39.14710	1099.99609	-2928.90015	3.91007	989.96619	-2667.28589	418.34317	928.72852	-2668.76636	130.06161	905.61041	-2441.95557	275.66867	903.28638	-2797.17578	374.09427	593.43115	-2767.21240	412.70856	470.13068	-2775.33789	335.00116	234.56552	-2728.52026	400.08377	67.75185	-2662.50537	339.53082	40.11214	-2874.20142	389.11777	37.68726	-2692.93774	141.41063	574.98999	-2565.10303	88.50702	425.93201	-2476.44604	157.67989	309.48401	-2214.76904	109.49918	210.19226	-2191.61206	173.27458	261.76938	-2225.36084	120.15665	67.48370	-2920.20020	370.66180	34.79734	-2881.07568	350.56171	42.95134	-2782.84009	313.58969	49.53976	-2708.69873	309.99994	36.58369	-2691.08838	383.74420	42.23014	-2766.23682	412.17642	34.84585	-2831.86719	431.73843	34.74451	-2245.39893	144.51872	32.07584	-2238.80688	156.90936	59.92270	-2237.95264	192.76080	148.66150	-2211.09814	201.47542	225.57050	-2187.10010	132.50394	236.40057	-2189.80933	100.69877	159.46483	-2202.77319	92.48933	98.16666	
598	4.975	-2644.17212	311.28180	1696.26770	-2748.81006	312.26767	1604.46033	-2530.02588	296.61697	1636.31189	-2545.40454	487.41653	1382.88220	-2456.97095	195.00931	1243.91211	-2458.86035	568.17938	1068.53845	-2515.17065	594.44098	812.31787	-2622.37134	86.51072	1402.68494	-2705.43237	-37.48721	1100.72021	-2933.19067	4.95789	985.08752	-2678.33691	419.72906	930.66858	-2679.55396	131.40758	908.21313	-2452.44995	277.23581	906.12500	-2803.40454	375.12161	592.91156	-2771.14087	413.98361	469.63080	-2777.85864	336.17773	234.14720	-2728.31396	400.38309	67.82651	-2662.24438	338.96939	40.15825	-2874.14551	389.25342	37.61407	-2710.78809	144.66649	578.54321	-2587.27271	89.80637	427.66837	-2497.64160	159.58762	312.04718	-2234.96729	111.85883	217.03632	-2214.20215	176.73094	267.40729	-2241.11011	118.71098	73.54126	-2920.83521	369.91254	35.91153	-2880.98096	350.64453	42.95573	-2782.86572	313.61615	49.60498	-2708.73291	309.99310	36.75417	-2690.91846	383.72470	42.22991	-2766.10791	412.39725	34.67633	-2831.74707	431.93381	34.53063	-2258.32764	138.37192	35.96730	-2254.21411	154.21634	63.53959	-2256.95776	194.77429	153.11137	-2233.02246	204.31477	230.57298	-2208.27930	136.19649	242.85199	-2207.63281	103.12589	166.62933	-2218.90869	93.18005	105.71992	
